<svg xmlns="http://www.w3.org/2000/svg" xmlns:xlink="http://www.w3.org/1999/xlink" width="2500" zoomAndPan="magnify" viewBox="0 0 1874.88 599.999999" height="800" preserveAspectRatio="xMidYMid meet" version="1.0"><defs><clipPath id="8f021275da"><path d="M 17 0.0195312 L 431.222656 0.0195312 L 431.222656 599.980469 L 17 599.980469 Z M 17 0.0195312 " clip-rule="nonzero"/></clipPath><clipPath id="c6f01259a1"><path d="M 0 0.0195312 L 121 0.0195312 L 121 599.980469 L 0 599.980469 Z M 0 0.0195312 " clip-rule="nonzero"/></clipPath><clipPath id="716448d752"><path d="M 438.277344 317.042969 L 587.519531 317.042969 L 587.519531 599.773438 L 438.277344 599.773438 Z M 438.277344 317.042969 " clip-rule="nonzero"/></clipPath><clipPath id="c8f978f079"><path d="M 603.214844 317.042969 L 752.457031 317.042969 L 752.457031 599.773438 L 603.214844 599.773438 Z M 603.214844 317.042969 " clip-rule="nonzero"/></clipPath><clipPath id="cde2184ea2"><path d="M 850 546 L 947.992188 546 L 947.992188 599.773438 L 850 599.773438 Z M 850 546 " clip-rule="nonzero"/></clipPath><clipPath id="bfa74f2b0a"><path d="M 785.253906 317.042969 L 839 317.042969 L 839 599.773438 L 785.253906 599.773438 Z M 785.253906 317.042969 " clip-rule="nonzero"/></clipPath><clipPath id="a617471fc3"><path d="M 1285 546 L 1383.039062 546 L 1383.039062 599.773438 L 1285 599.773438 Z M 1285 546 " clip-rule="nonzero"/></clipPath><clipPath id="a777230dbc"><path d="M 1220.296875 317.042969 L 1274 317.042969 L 1274 599.773438 L 1220.296875 599.773438 Z M 1220.296875 317.042969 " clip-rule="nonzero"/></clipPath><clipPath id="03a05094c9"><path d="M 955.792969 419 L 1228.027344 419 L 1228.027344 599.980469 L 955.792969 599.980469 Z M 955.792969 419 " clip-rule="nonzero"/></clipPath><clipPath id="d8592416e2"><path d="M 962 205.734375 L 1228.027344 205.734375 L 1228.027344 387 L 962 387 Z M 962 205.734375 " clip-rule="nonzero"/></clipPath><clipPath id="1658684d7c"><path d="M 1400.664062 251.261719 L 1459.910156 251.261719 L 1459.910156 315 L 1400.664062 315 Z M 1400.664062 251.261719 " clip-rule="nonzero"/></clipPath><clipPath id="f4a48e6989"><path d="M 1401 333 L 1459.910156 333 L 1459.910156 599.980469 L 1401 599.980469 Z M 1401 333 " clip-rule="nonzero"/></clipPath><clipPath id="7d319d2559"><path d="M 1467.445312 243.222656 L 1767 243.222656 L 1767 599.980469 L 1467.445312 599.980469 Z M 1467.445312 243.222656 " clip-rule="nonzero"/></clipPath><clipPath id="0d5eb9e0fc"><path d="M 1491 243.222656 L 1874.761719 243.222656 L 1874.761719 599.980469 L 1491 599.980469 Z M 1491 243.222656 " clip-rule="nonzero"/></clipPath></defs><g clip-path="url(#8f021275da)"><path fill="#ff1616" d="M 431.242188 418.027344 C 431.242188 506.597656 367.558594 600.011719 243.898438 600.011719 L 17.0625 600.011719 L 137.375 482.402344 L 232.710938 482.402344 C 271.820312 482.402344 313.535156 455.605469 313.535156 409.457031 C 313.535156 374.828125 289.699219 340.234375 232.351562 340.234375 L 137.375 340.234375 L 137.375 234.542969 L 186.164062 234.542969 C 214.851562 234.542969 242.773438 209.96875 242.773438 174.996094 C 242.773438 141.128906 216.316406 117.3125 188.390625 117.3125 L 137.375 117.3125 L 17.0625 0.0820312 L 180.953125 0.0820312 C 287.476562 0.0820312 355.269531 78.234375 355.269531 158.992188 C 355.269531 222.625 313.171875 262.082031 298.660156 262.082031 C 356.371094 262.082031 431.242188 321.648438 431.242188 418.027344 Z M 431.242188 418.027344 " fill-opacity="1" fill-rule="nonzero"/></g><g clip-path="url(#c6f01259a1)"><path fill="#ed1c24" d="M 120.3125 117.3125 L 120.3125 482.421875 L 0 600.011719 L 0 0.0820312 Z M 120.3125 117.3125 " fill-opacity="1" fill-rule="nonzero"/></g><g clip-path="url(#716448d752)"><path fill="#ff1616" d="M 547.722656 520.363281 C 545.503906 518.8125 546.945312 516.550781 546.597656 514.632812 L 546.472656 514.640625 L 546.476562 514.640625 C 546.484375 514.589844 546.488281 514.546875 546.492188 514.5 C 544.425781 513.359375 543.625 511.730469 544.554688 509.261719 C 546.421875 510.679688 546.820312 512.460938 546.492188 514.5 C 546.527344 514.515625 546.550781 514.535156 546.582031 514.554688 C 546.589844 514.582031 546.589844 514.605469 546.597656 514.632812 C 546.972656 514.613281 547.351562 514.59375 547.730469 514.574219 Z M 530.695312 440.855469 C 532.082031 444.042969 533.019531 446.195312 534.386719 449.335938 C 529.6875 447.65625 530.289062 444.835938 530.695312 440.855469 Z M 495.972656 350.015625 C 495.40625 350.210938 494.042969 349.84375 494.015625 349.605469 C 493.683594 347.042969 495.675781 346.214844 497.746094 345.089844 C 498.511719 347.605469 498.132812 349.269531 495.972656 350.015625 Z M 481.984375 331.621094 C 481.304688 333.738281 483.429688 335.835938 481.898438 338.027344 C 480.617188 339.855469 480.058594 342.585938 477.207031 342.363281 C 476.183594 342.285156 473.511719 342.210938 474.074219 341.011719 C 475.152344 338.71875 474.585938 335.703125 476.960938 334.027344 C 478.195312 333.160156 479.511719 332.421875 480.789062 331.621094 C 481.332031 330.085938 481.871094 328.554688 482.523438 326.703125 C 485.378906 328.988281 484.40625 330.402344 481.984375 331.621094 Z M 468.925781 356.855469 C 467.71875 355.945312 466.414062 354.671875 467.542969 353.652344 C 469.023438 352.308594 469.253906 354.199219 469.445312 355.203125 C 469.53125 355.671875 469.140625 356.226562 468.925781 356.855469 Z M 512.894531 317.078125 C 478.882812 317.078125 450.210938 339.976562 441.265625 371.132812 C 441.550781 371.941406 441.6875 372.886719 442.160156 373.511719 C 442.816406 374.375 441.46875 375.707031 440.835938 375.316406 C 440.648438 375.199219 440.433594 375.089844 440.230469 374.980469 C 440.195312 375.136719 440.144531 375.28125 440.109375 375.433594 L 512.894531 375.433594 C 521.839844 375.433594 529.113281 382.703125 529.113281 391.636719 L 529.113281 512.652344 C 529.328125 513.507812 529.566406 514.359375 529.769531 515.21875 C 530.132812 516.75 533.601562 513.207031 532.054688 516.730469 C 531.546875 517.894531 530.355469 518.230469 529.113281 518.238281 L 529.113281 525.226562 C 529.113281 526.761719 528.828125 528.214844 528.429688 529.621094 L 538.28125 529.621094 C 537.535156 526.613281 535.4375 523.789062 536.753906 519.804688 C 539.652344 522.152344 538.484375 524.753906 538.519531 527.074219 C 540.953125 527.460938 541.257812 528.464844 540.984375 529.621094 L 587.289062 529.621094 C 587.378906 528.15625 587.515625 526.710938 587.515625 525.226562 L 587.515625 391.636719 C 587.515625 350.527344 554.042969 317.078125 512.894531 317.078125 Z M 497.8125 570.074219 C 498.105469 570.480469 498.371094 570.914062 498.640625 571.347656 C 498.503906 570.753906 498.289062 570.261719 497.8125 570.074219 Z M 524.132812 541.425781 L 512.894531 541.425781 C 508.402344 541.425781 504.328125 539.582031 501.390625 536.617188 C 501.046875 537.726562 500.46875 538.722656 499.347656 539.136719 C 497.101562 539.972656 496.328125 541.53125 495.992188 543.605469 C 496.414062 546.25 494.535156 549.058594 496.5625 551.585938 C 498.28125 552.558594 503.449219 552.527344 497.410156 555.546875 C 495.542969 556.480469 498.445312 558.882812 498.046875 560.757812 C 498.660156 561.632812 499.859375 562.554688 499.785156 563.367188 C 499.464844 567 500.945312 569.117188 504.417969 569.964844 C 504.976562 570.023438 505.535156 570.078125 506.089844 570.136719 C 507.152344 569.710938 508.214844 569.289062 509.273438 568.863281 C 511.5 566.617188 513.175781 564.011719 514.058594 560.980469 C 514.773438 558.515625 515.738281 556.398438 518.597656 555.902344 C 519.847656 552.890625 519.683594 549.011719 524.117188 548.054688 C 525.574219 547.742188 525.464844 547.238281 522.984375 544.261719 C 522.886719 544.144531 522.804688 543.90625 522.863281 543.804688 C 522.945312 543.652344 523.160156 543.578125 523.320312 543.46875 C 523.648438 542.828125 523.894531 542.125 524.132812 541.425781 Z M 462.160156 578.390625 C 462.386719 578.253906 462.546875 578.070312 462.648438 577.847656 C 462.503906 578.035156 462.339844 578.210938 462.160156 578.371094 Z M 534.890625 548.160156 C 535.277344 548.140625 535.664062 548.125 536.050781 548.105469 C 540.3125 546.375 539.09375 549.671875 539.308594 551.652344 C 540.222656 552.058594 542.25 551.503906 541.734375 553.148438 C 541.257812 554.664062 539.640625 554.304688 538.488281 553.289062 C 534.511719 553.523438 531.988281 552.742188 534.890625 548.160156 Z M 544.824219 563.308594 C 545.945312 562.488281 546.554688 564.355469 547.671875 564.347656 L 547.667969 570.136719 C 545.414062 569.613281 545.207031 567.53125 544.582031 565.871094 C 544.296875 565.113281 544.347656 563.660156 544.824219 563.308594 Z M 487.070312 500.804688 C 487.273438 500.628906 488.316406 500.925781 488.429688 501.214844 C 489.03125 502.761719 488.71875 504.082031 486.6875 504.976562 C 485.898438 503.363281 485.753906 501.949219 487.070312 500.804688 Z M 484.675781 462.492188 C 482.324219 462.445312 481.6875 461.933594 481.742188 460.738281 C 481.792969 459.738281 482 458.617188 483.261719 459 C 484.066406 459.242188 485.027344 460.109375 485.238281 460.882812 C 485.535156 461.976562 484.550781 462.488281 484.675781 462.492188 Z M 481.230469 539.082031 C 481.664062 535.632812 483.738281 532.953125 482.636719 529.9375 C 482.199219 528.914062 481.839844 527.851562 481.304688 526.886719 C 480.742188 525.871094 480.75 525.082031 481.863281 524.589844 C 482.925781 524.125 483.765625 524.777344 484.265625 525.542969 C 485.136719 526.871094 484.363281 527.621094 483.058594 528.007812 C 482.824219 531.542969 488.265625 535.789062 481.230469 539.082031 Z M 482.875 573.699219 C 482.003906 574.785156 481.132812 575.867188 480.261719 576.953125 C 479.808594 578.371094 478.945312 580.277344 477.476562 578.890625 C 476.035156 577.539062 478.253906 576.585938 479.222656 575.65625 C 479.714844 574.570312 480.207031 573.480469 480.699219 572.394531 C 480.929688 571.242188 481.410156 570.105469 482.78125 570.824219 C 484.136719 571.539062 484.804688 572.683594 482.875 573.699219 Z M 479.652344 510.945312 C 479.273438 508.636719 478.890625 506.328125 478.511719 504.023438 C 476.222656 499.671875 477.40625 494.691406 476 490.179688 C 474.183594 485.742188 473.765625 481.054688 473.550781 476.328125 C 472.222656 473.023438 471.636719 469.550781 471.222656 466.035156 C 469.144531 464.367188 470.453125 462.273438 470.25 459.253906 C 471.277344 461.753906 471.882812 463.230469 472.496094 464.714844 C 473.757812 464.757812 475.703125 464.65625 474.453125 466.597656 C 473.320312 468.359375 474.363281 469.265625 474.945312 470.496094 L 475.332031 470.480469 L 475.722656 470.492188 C 475.886719 469.230469 476.058594 467.96875 476.222656 466.707031 C 476.453125 466.710938 476.683594 466.714844 476.910156 466.722656 C 477.035156 469.160156 477.164062 471.601562 477.289062 474.042969 L 478.265625 475.160156 C 478.71875 477.488281 476.15625 479.488281 477.519531 481.917969 C 478.890625 483.3125 477.890625 485.089844 478.289062 486.640625 C 480.4375 491.777344 480.753906 497.0625 479.628906 502.472656 C 481.613281 505.140625 481.015625 508.089844 480.550781 511.023438 C 482.605469 512.652344 481.953125 514.597656 481.324219 516.597656 C 478.671875 515.242188 479.804688 512.917969 479.652344 510.945312 Z M 470.742188 486.4375 C 470.707031 486.957031 469.664062 487.410156 469.082031 487.890625 C 468.285156 490.117188 467.707031 492.492188 464.203125 494.085938 C 464.664062 491.257812 463.378906 488.867188 466.484375 487.449219 C 466.398438 486.101562 467.398438 485.347656 468.226562 484.621094 C 469.515625 483.496094 468.601562 479.304688 471.832031 481.222656 C 474.695312 482.921875 470.871094 484.578125 470.742188 486.4375 Z M 458.609375 409.90625 C 455.714844 406.75 455.625 404.402344 457.917969 400.128906 C 461.574219 403.132812 458.269531 406.414062 458.609375 409.90625 Z M 464.957031 432.425781 C 465.792969 435.835938 467.28125 438.695312 466.148438 441.96875 C 465.558594 438.964844 463.148438 436.246094 464.957031 432.425781 Z M 468.027344 448.449219 C 469.878906 449.535156 468.789062 451.363281 469.140625 452.828125 C 470.964844 454.125 470.027344 455.875 469.984375 457.582031 C 468.183594 457.09375 467.488281 456.039062 467.890625 454.292969 C 467.492188 452.773438 467.089844 451.25 466.691406 449.730469 C 465.398438 448.660156 464.636719 447.175781 466.453125 446.339844 C 467.90625 445.671875 467.882812 447.417969 468.027344 448.449219 Z M 480.53125 415.628906 C 481.210938 415.128906 481.890625 414.628906 482.570312 414.128906 C 483.535156 416.277344 481.4375 417.070312 480.667969 418.449219 L 478.703125 421.609375 C 478.160156 421.152344 477.101562 420.632812 477.152344 420.253906 C 477.421875 418.160156 478.496094 416.503906 480.53125 415.628906 Z M 490.8125 406.046875 C 492.398438 405.925781 492.574219 406.890625 492.191406 407.519531 C 490.707031 409.96875 490.4375 413.410156 487.179688 414.367188 C 486.832031 414.46875 485.789062 412.191406 485.128906 411.121094 C 486.425781 408.519531 487.585938 406.292969 490.8125 406.046875 Z M 446.78125 439.613281 C 445.632812 436.488281 445.453125 434.53125 447.128906 433.050781 C 447.035156 434.859375 446.9375 436.667969 446.78125 439.613281 Z M 442.148438 460.792969 C 443.101562 454.160156 444.054688 447.527344 445.007812 440.894531 C 446.464844 447.84375 445.671875 454.5 442.148438 460.792969 Z M 441.898438 468.054688 C 440.746094 466.105469 441.308594 464.691406 441.289062 462.132812 C 442.777344 464.609375 442.535156 466.050781 441.898438 468.054688 Z M 530.476562 543.171875 C 531.621094 543.527344 533.707031 542.691406 533.648438 544.566406 C 533.589844 546.167969 531.175781 544.640625 530.375 545.933594 C 529.300781 548.636719 528.222656 551.339844 527.144531 554.042969 C 521.148438 559.515625 520.839844 568.734375 514.148438 573.75 C 515.910156 579.441406 514.148438 581.976562 506.0625 585.386719 C 505.632812 588.507812 505.386719 591.671875 503.640625 594.4375 C 504.1875 595.613281 504.738281 596.792969 505.285156 597.96875 C 503.460938 596.851562 500.550781 597.394531 500.136719 594.472656 C 499.183594 592.992188 495.285156 593.964844 496.785156 590.433594 C 497.824219 587.992188 499.332031 587.964844 501.1875 589.507812 C 499.195312 586.117188 501.613281 582.753906 501.234375 579.371094 C 500.300781 576.195312 497.542969 573.695312 497.8125 570.074219 C 496.15625 569.957031 498.429688 564.148438 494 567.585938 C 492.660156 568.628906 492.183594 566.414062 492.09375 565.089844 C 491.914062 562.558594 493.070312 560.503906 494.40625 558.503906 C 495.214844 556.726562 495.785156 554.90625 495.46875 552.914062 C 493.507812 550.027344 491.175781 547.28125 491.917969 543.386719 C 494.515625 542.019531 496.269531 540.003906 496.730469 537.03125 C 496.996094 535.347656 497.910156 534.390625 499.363281 534.105469 C 497.679688 531.550781 496.6875 528.503906 496.6875 525.226562 L 496.6875 517.164062 C 495.984375 518.304688 493.710938 519.414062 493.960938 520.886719 C 494.371094 523.296875 493.582031 524.796875 491.019531 525.097656 C 491.230469 526.640625 492.902344 528 491.265625 529.773438 C 490.058594 531.085938 488.789062 532.621094 487.058594 531.683594 C 484.964844 530.542969 487.132812 528.441406 487.5625 527.976562 C 489.433594 525.933594 489.339844 523.152344 490.78125 521.042969 C 491.828125 518.457031 493.785156 514.164062 495.578125 515.109375 C 496.195312 515.433594 496.5 515.738281 496.6875 516.035156 L 496.6875 399.195312 C 495.5 401.238281 494.34375 402.679688 492.441406 403.125 C 490.738281 403.527344 491.160156 401.609375 493.523438 399.996094 C 494.386719 399.410156 495.296875 398.832031 496.6875 397.929688 L 496.6875 391.636719 C 496.6875 390.101562 496.96875 388.648438 497.367188 387.238281 L 450.015625 387.238281 C 449.675781 387.773438 449.167969 388.191406 448.273438 388.351562 C 447.976562 388.980469 447.789062 390.035156 447.359375 390.148438 C 446.628906 390.339844 445.835938 389.503906 446.078125 388.785156 C 446.253906 388.257812 446.5 387.75 446.738281 387.238281 L 438.507812 387.238281 C 438.421875 388.703125 438.28125 390.152344 438.28125 391.636719 L 438.28125 399.445312 C 438.5625 398.828125 439.019531 398.203125 439.769531 397.574219 C 440.945312 400.25 439.53125 402.128906 439.105469 404.132812 C 438.777344 403.578125 438.488281 403.027344 438.28125 402.476562 L 438.28125 525.226562 C 438.28125 528.550781 438.578125 531.800781 439.003906 535.011719 C 441.414062 530.003906 443.082031 524.515625 448.011719 521.132812 C 449.53125 517.097656 449.578125 512.226562 455.078125 509.328125 C 454.824219 516.777344 451.480469 521.78125 447.066406 526.308594 C 445.234375 530.195312 444.289062 534.539062 441.167969 537.757812 C 440.53125 538.183594 440.097656 538.976562 439.738281 539.820312 C 441.5625 548.953125 445.101562 557.457031 449.9375 565.066406 C 450.402344 564.792969 450.828125 564.488281 451.378906 564.273438 C 455.070312 562.824219 454.246094 558.09375 457.234375 556.117188 C 459.636719 551.683594 461.871094 547.140625 465.34375 543.386719 C 466.539062 535.746094 467.464844 527.945312 476.820312 524.871094 C 476.105469 532.671875 471.414062 538.410156 468.039062 544.714844 C 467.332031 548.636719 464.007812 550.828125 461.984375 553.878906 C 460.636719 560.027344 456.167969 564.199219 452.570312 568.921875 C 454.628906 571.753906 456.859375 574.449219 459.289062 576.960938 C 459.363281 576.941406 459.402344 576.890625 459.484375 576.867188 C 464.164062 567.824219 468.910156 558.816406 473.457031 549.707031 C 474.078125 548.457031 474.628906 547.433594 475.832031 546.789062 C 476.777344 544.175781 480.371094 543.351562 479.996094 539.851562 C 482.132812 545.050781 482.132812 545.050781 475.910156 555.121094 C 473.347656 561.785156 469.09375 567.480469 465.457031 573.53125 C 464.5625 575.304688 465.359375 578.230469 462.160156 578.425781 C 462.175781 578.859375 462.144531 579.273438 462.082031 579.667969 C 465.179688 582.554688 468.492188 585.210938 472.046875 587.546875 C 472.648438 586.441406 473.347656 585.410156 473.5 584.214844 C 473.6875 582.753906 474.824219 581.277344 475.984375 581.9375 C 477.359375 582.722656 477.519531 584.730469 476.359375 586.203125 C 475.65625 587.09375 474.914062 587.957031 474.160156 588.828125 C 478.351562 591.386719 482.800781 593.535156 487.484375 595.238281 C 486.542969 593.050781 487.300781 590.8125 487.339844 588.59375 C 487.410156 585.890625 487.476562 583.1875 487.546875 580.488281 C 484.632812 576.539062 486.828125 572.054688 486.21875 567.867188 C 483.328125 566.035156 487.257812 564.726562 486.589844 563.066406 C 484.140625 561.949219 483.527344 559.699219 483.46875 557.382812 C 483.417969 555.238281 484.289062 552.550781 486.558594 552.789062 C 488.949219 553.042969 487.300781 555.519531 487.242188 557.054688 C 487.167969 559.085938 487.117188 561.117188 487.058594 563.148438 L 487.726562 566.460938 C 490.367188 570.347656 493.121094 574.636719 491.816406 579.273438 C 490.34375 584.503906 494.582031 589.246094 492.160156 594.246094 C 492.597656 595.175781 492.882812 596.105469 493.082031 597.03125 C 499.117188 598.699219 505.4375 599.660156 511.980469 599.738281 C 511.730469 599.230469 511.640625 598.578125 511.65625 597.917969 C 511.105469 595.074219 512.707031 593.933594 515.171875 593.46875 L 517.566406 591.347656 C 519.042969 588.015625 518.941406 583.988281 522.015625 581.367188 C 521.71875 579.328125 522.730469 577.988281 524.378906 577 C 525.351562 575.542969 525.847656 573.667969 527.820312 573.085938 C 529.351562 571.101562 528.441406 567.941406 531.015625 566.457031 C 531.46875 564.757812 532.8125 562.449219 534.09375 563.375 C 536.390625 565.042969 533.929688 566.777344 532.804688 568.296875 C 532.203125 570.878906 530.394531 572.71875 528.84375 574.71875 C 528.859375 576.988281 528.695312 579.203125 527.003906 580.972656 L 527.050781 581.230469 C 532.128906 584.75 527.289062 586.410156 525.65625 588.671875 C 520.839844 586.355469 520.875 591.6875 518.492188 593.210938 C 518.769531 594.152344 519.355469 595.136719 518.113281 595.859375 C 517.449219 597.195312 516.890625 598.679688 515.851562 599.65625 C 550.101562 598.308594 578.46875 573.832031 585.6875 541.425781 L 530.511719 541.425781 C 530.5 542.007812 530.488281 542.589844 530.476562 543.171875 " fill-opacity="1" fill-rule="nonzero"/></g><g clip-path="url(#c8f978f079)"><path fill="#ff1616" d="M 712.660156 520.363281 C 710.441406 518.8125 711.882812 516.550781 711.535156 514.632812 L 711.410156 514.640625 L 711.414062 514.640625 C 711.421875 514.589844 711.425781 514.546875 711.429688 514.5 C 709.363281 513.359375 708.5625 511.730469 709.492188 509.261719 C 711.363281 510.679688 711.757812 512.460938 711.429688 514.5 C 711.464844 514.515625 711.488281 514.535156 711.519531 514.554688 C 711.527344 514.582031 711.527344 514.605469 711.535156 514.632812 C 711.910156 514.613281 712.289062 514.59375 712.667969 514.574219 Z M 695.632812 440.855469 C 697.019531 444.042969 697.957031 446.195312 699.324219 449.335938 C 694.625 447.65625 695.226562 444.835938 695.632812 440.855469 Z M 660.910156 350.015625 C 660.34375 350.210938 658.980469 349.84375 658.953125 349.605469 C 658.621094 347.042969 660.613281 346.214844 662.683594 345.089844 C 663.449219 347.605469 663.070312 349.269531 660.910156 350.015625 Z M 646.921875 331.621094 C 646.242188 333.738281 648.367188 335.835938 646.835938 338.027344 C 645.554688 339.855469 644.996094 342.585938 642.144531 342.363281 C 641.121094 342.285156 638.449219 342.210938 639.011719 341.011719 C 640.089844 338.71875 639.523438 335.703125 641.898438 334.027344 C 643.132812 333.160156 644.449219 332.421875 645.726562 331.621094 C 646.269531 330.085938 646.808594 328.554688 647.460938 326.703125 C 650.316406 328.988281 649.34375 330.402344 646.921875 331.621094 Z M 633.863281 356.855469 C 632.65625 355.945312 631.351562 354.671875 632.480469 353.652344 C 633.964844 352.308594 634.191406 354.199219 634.382812 355.203125 C 634.46875 355.671875 634.078125 356.226562 633.863281 356.855469 Z M 677.832031 317.078125 C 643.820312 317.078125 615.148438 339.976562 606.203125 371.132812 C 606.492188 371.941406 606.625 372.886719 607.097656 373.511719 C 607.753906 374.375 606.40625 375.707031 605.777344 375.316406 C 605.585938 375.199219 605.371094 375.089844 605.167969 374.980469 C 605.132812 375.136719 605.082031 375.28125 605.046875 375.433594 L 677.832031 375.433594 C 686.777344 375.433594 694.050781 382.703125 694.050781 391.636719 L 694.050781 512.652344 C 694.265625 513.507812 694.503906 514.359375 694.707031 515.21875 C 695.070312 516.75 698.539062 513.207031 696.992188 516.730469 C 696.484375 517.894531 695.292969 518.230469 694.050781 518.238281 L 694.050781 525.226562 C 694.050781 526.761719 693.765625 528.214844 693.367188 529.621094 L 703.21875 529.621094 C 702.472656 526.613281 700.375 523.789062 701.691406 519.804688 C 704.59375 522.152344 703.421875 524.753906 703.457031 527.074219 C 705.890625 527.460938 706.195312 528.464844 705.921875 529.621094 L 752.226562 529.621094 C 752.316406 528.15625 752.453125 526.710938 752.453125 525.226562 L 752.453125 391.636719 C 752.453125 350.527344 718.980469 317.078125 677.832031 317.078125 Z M 662.75 570.074219 C 663.042969 570.480469 663.308594 570.914062 663.578125 571.347656 C 663.441406 570.753906 663.226562 570.261719 662.75 570.074219 Z M 689.070312 541.425781 L 677.832031 541.425781 C 673.339844 541.425781 669.265625 539.582031 666.328125 536.617188 C 665.984375 537.726562 665.40625 538.722656 664.285156 539.136719 C 662.039062 539.972656 661.265625 541.53125 660.929688 543.605469 C 661.355469 546.25 659.472656 549.058594 661.5 551.585938 C 663.21875 552.558594 668.386719 552.527344 662.347656 555.546875 C 660.480469 556.480469 663.382812 558.882812 662.984375 560.757812 C 663.597656 561.632812 664.796875 562.554688 664.722656 563.367188 C 664.402344 567 665.882812 569.117188 669.355469 569.964844 C 669.914062 570.023438 670.472656 570.078125 671.027344 570.136719 C 672.089844 569.710938 673.152344 569.289062 674.210938 568.863281 C 676.4375 566.617188 678.113281 564.011719 678.996094 560.980469 C 679.710938 558.515625 680.675781 556.398438 683.535156 555.902344 C 684.785156 552.890625 684.621094 549.011719 689.054688 548.054688 C 690.511719 547.742188 690.402344 547.238281 687.921875 544.261719 C 687.824219 544.144531 687.742188 543.90625 687.800781 543.804688 C 687.882812 543.652344 688.097656 543.578125 688.257812 543.46875 C 688.589844 542.828125 688.832031 542.125 689.070312 541.425781 Z M 627.097656 578.390625 C 627.324219 578.253906 627.484375 578.070312 627.585938 577.847656 C 627.441406 578.035156 627.277344 578.210938 627.097656 578.371094 Z M 699.828125 548.160156 C 700.214844 548.140625 700.601562 548.125 700.988281 548.105469 C 705.25 546.375 704.03125 549.671875 704.246094 551.652344 C 705.160156 552.058594 707.1875 551.503906 706.671875 553.148438 C 706.195312 554.664062 704.578125 554.304688 703.425781 553.289062 C 699.449219 553.523438 696.925781 552.742188 699.828125 548.160156 Z M 709.761719 563.308594 C 710.882812 562.488281 711.492188 564.355469 712.609375 564.347656 L 712.605469 570.136719 C 710.351562 569.613281 710.144531 567.53125 709.519531 565.871094 C 709.234375 565.113281 709.285156 563.660156 709.761719 563.308594 Z M 652.007812 500.804688 C 652.210938 500.628906 653.253906 500.925781 653.367188 501.214844 C 653.96875 502.761719 653.65625 504.082031 651.625 504.976562 C 650.835938 503.363281 650.691406 501.949219 652.007812 500.804688 Z M 649.613281 462.492188 C 647.261719 462.445312 646.625 461.933594 646.679688 460.738281 C 646.730469 459.738281 646.9375 458.617188 648.199219 459 C 649.003906 459.242188 649.96875 460.109375 650.175781 460.882812 C 650.472656 461.976562 649.492188 462.488281 649.613281 462.492188 Z M 646.167969 539.082031 C 646.601562 535.632812 648.675781 532.953125 647.574219 529.9375 C 647.136719 528.914062 646.777344 527.851562 646.242188 526.886719 C 645.679688 525.871094 645.6875 525.082031 646.800781 524.589844 C 647.863281 524.125 648.703125 524.777344 649.203125 525.542969 C 650.074219 526.871094 649.300781 527.621094 647.996094 528.007812 C 647.761719 531.542969 653.203125 535.789062 646.167969 539.082031 Z M 647.8125 573.699219 C 646.941406 574.785156 646.070312 575.867188 645.199219 576.953125 C 644.746094 578.371094 643.882812 580.277344 642.414062 578.890625 C 640.972656 577.539062 643.191406 576.585938 644.160156 575.65625 C 644.652344 574.570312 645.144531 573.480469 645.636719 572.394531 C 645.867188 571.242188 646.347656 570.105469 647.71875 570.824219 C 649.074219 571.539062 649.742188 572.683594 647.8125 573.699219 Z M 644.589844 510.945312 C 644.210938 508.636719 643.828125 506.328125 643.449219 504.023438 C 641.160156 499.671875 642.34375 494.691406 640.9375 490.179688 C 639.121094 485.742188 638.703125 481.054688 638.488281 476.328125 C 637.160156 473.023438 636.574219 469.550781 636.160156 466.035156 C 634.082031 464.367188 635.390625 462.273438 635.1875 459.253906 C 636.214844 461.753906 636.820312 463.230469 637.433594 464.714844 C 638.695312 464.757812 640.640625 464.65625 639.390625 466.597656 C 638.257812 468.359375 639.300781 469.265625 639.882812 470.496094 L 640.269531 470.480469 L 640.660156 470.492188 C 640.824219 469.230469 640.996094 467.96875 641.160156 466.707031 C 641.390625 466.710938 641.621094 466.714844 641.847656 466.722656 C 641.972656 469.160156 642.101562 471.601562 642.226562 474.042969 L 643.203125 475.160156 C 643.65625 477.488281 641.09375 479.488281 642.457031 481.917969 C 643.828125 483.3125 642.828125 485.089844 643.226562 486.640625 C 645.375 491.777344 645.691406 497.0625 644.566406 502.472656 C 646.550781 505.140625 645.953125 508.089844 645.488281 511.023438 C 647.542969 512.652344 646.890625 514.597656 646.261719 516.597656 C 643.609375 515.242188 644.742188 512.917969 644.589844 510.945312 Z M 635.679688 486.4375 C 635.644531 486.957031 634.601562 487.410156 634.019531 487.890625 C 633.222656 490.117188 632.644531 492.492188 629.140625 494.085938 C 629.601562 491.257812 628.316406 488.867188 631.421875 487.449219 C 631.335938 486.101562 632.335938 485.347656 633.167969 484.621094 C 634.453125 483.496094 633.539062 479.304688 636.769531 481.222656 C 639.632812 482.921875 635.808594 484.578125 635.679688 486.4375 Z M 623.546875 409.90625 C 620.652344 406.75 620.5625 404.402344 622.855469 400.128906 C 626.511719 403.132812 623.207031 406.414062 623.546875 409.90625 Z M 629.894531 432.425781 C 630.730469 435.835938 632.21875 438.695312 631.085938 441.96875 C 630.496094 438.964844 628.085938 436.246094 629.894531 432.425781 Z M 632.964844 448.449219 C 634.816406 449.535156 633.726562 451.363281 634.078125 452.828125 C 635.902344 454.125 634.964844 455.875 634.921875 457.582031 C 633.121094 457.09375 632.425781 456.039062 632.828125 454.292969 C 632.429688 452.773438 632.027344 451.25 631.628906 449.730469 C 630.335938 448.660156 629.574219 447.175781 631.390625 446.339844 C 632.84375 445.671875 632.820312 447.417969 632.964844 448.449219 Z M 645.46875 415.628906 C 646.148438 415.128906 646.828125 414.628906 647.507812 414.128906 C 648.472656 416.277344 646.375 417.070312 645.605469 418.449219 L 643.640625 421.609375 C 643.097656 421.152344 642.039062 420.632812 642.089844 420.253906 C 642.359375 418.160156 643.433594 416.503906 645.46875 415.628906 Z M 655.75 406.046875 C 657.335938 405.925781 657.511719 406.890625 657.128906 407.519531 C 655.644531 409.96875 655.375 413.410156 652.117188 414.367188 C 651.769531 414.46875 650.726562 412.191406 650.066406 411.121094 C 651.363281 408.519531 652.523438 406.292969 655.75 406.046875 Z M 611.71875 439.613281 C 610.570312 436.488281 610.394531 434.53125 612.070312 433.050781 C 611.972656 434.859375 611.875 436.667969 611.71875 439.613281 Z M 607.085938 460.792969 C 608.039062 454.160156 608.992188 447.527344 609.945312 440.894531 C 611.402344 447.84375 610.609375 454.5 607.085938 460.792969 Z M 606.835938 468.054688 C 605.683594 466.105469 606.246094 464.691406 606.226562 462.132812 C 607.714844 464.609375 607.472656 466.050781 606.835938 468.054688 Z M 695.414062 543.171875 C 696.558594 543.527344 698.644531 542.691406 698.585938 544.566406 C 698.527344 546.167969 696.113281 544.640625 695.3125 545.933594 C 694.238281 548.636719 693.160156 551.339844 692.082031 554.042969 C 686.085938 559.515625 685.777344 568.734375 679.085938 573.75 C 680.847656 579.441406 679.085938 581.976562 671 585.386719 C 670.570312 588.507812 670.324219 591.671875 668.578125 594.4375 C 669.125 595.613281 669.675781 596.792969 670.222656 597.96875 C 668.398438 596.851562 665.488281 597.394531 665.074219 594.472656 C 664.121094 592.992188 660.222656 593.964844 661.722656 590.433594 C 662.761719 587.992188 664.269531 587.964844 666.125 589.507812 C 664.132812 586.117188 666.550781 582.753906 666.171875 579.371094 C 665.238281 576.195312 662.480469 573.695312 662.75 570.074219 C 661.09375 569.957031 663.367188 564.148438 658.9375 567.585938 C 657.597656 568.628906 657.121094 566.414062 657.03125 565.089844 C 656.851562 562.558594 658.011719 560.503906 659.34375 558.503906 C 660.152344 556.726562 660.722656 554.90625 660.40625 552.914062 C 658.445312 550.027344 656.113281 547.28125 656.855469 543.386719 C 659.453125 542.019531 661.207031 540.003906 661.667969 537.03125 C 661.933594 535.347656 662.847656 534.390625 664.304688 534.105469 C 662.617188 531.550781 661.625 528.503906 661.625 525.226562 L 661.625 517.164062 C 660.921875 518.304688 658.648438 519.414062 658.898438 520.886719 C 659.308594 523.296875 658.519531 524.796875 655.957031 525.097656 C 656.167969 526.640625 657.839844 528 656.203125 529.773438 C 654.996094 531.085938 653.726562 532.621094 651.996094 531.683594 C 649.902344 530.542969 652.070312 528.441406 652.5 527.976562 C 654.371094 525.933594 654.277344 523.152344 655.71875 521.042969 C 656.765625 518.457031 658.722656 514.164062 660.515625 515.109375 C 661.132812 515.433594 661.4375 515.738281 661.625 516.035156 L 661.625 399.195312 C 660.4375 401.238281 659.28125 402.679688 657.378906 403.125 C 655.675781 403.527344 656.097656 401.609375 658.460938 399.996094 C 659.324219 399.410156 660.234375 398.832031 661.625 397.929688 L 661.625 391.636719 C 661.625 390.101562 661.90625 388.648438 662.304688 387.238281 L 614.953125 387.238281 C 614.617188 387.773438 614.105469 388.191406 613.210938 388.351562 C 612.914062 388.980469 612.726562 390.035156 612.296875 390.148438 C 611.566406 390.339844 610.773438 389.503906 611.015625 388.785156 C 611.191406 388.257812 611.4375 387.75 611.675781 387.238281 L 603.445312 387.238281 C 603.359375 388.703125 603.21875 390.152344 603.21875 391.636719 L 603.21875 399.445312 C 603.5 398.828125 603.957031 398.203125 604.707031 397.574219 C 605.882812 400.25 604.46875 402.128906 604.042969 404.132812 C 603.714844 403.578125 603.425781 403.027344 603.21875 402.476562 L 603.21875 525.226562 C 603.21875 528.550781 603.515625 531.800781 603.941406 535.011719 C 606.351562 530.003906 608.019531 524.515625 612.949219 521.132812 C 614.46875 517.097656 614.515625 512.226562 620.015625 509.328125 C 619.761719 516.777344 616.417969 521.78125 612.003906 526.308594 C 610.171875 530.195312 609.226562 534.539062 606.105469 537.757812 C 605.46875 538.183594 605.035156 538.976562 604.675781 539.820312 C 606.5 548.953125 610.039062 557.457031 614.875 565.066406 C 615.339844 564.792969 615.765625 564.488281 616.316406 564.273438 C 620.007812 562.824219 619.183594 558.09375 622.171875 556.117188 C 624.574219 551.683594 626.808594 547.140625 630.28125 543.386719 C 631.476562 535.746094 632.402344 527.945312 641.757812 524.871094 C 641.042969 532.671875 636.355469 538.410156 632.976562 544.714844 C 632.269531 548.636719 628.945312 550.828125 626.921875 553.878906 C 625.574219 560.027344 621.105469 564.199219 617.507812 568.921875 C 619.566406 571.753906 621.796875 574.449219 624.226562 576.960938 C 624.300781 576.941406 624.339844 576.890625 624.421875 576.867188 C 629.101562 567.824219 633.847656 558.816406 638.394531 549.707031 C 639.015625 548.457031 639.566406 547.433594 640.769531 546.789062 C 641.714844 544.175781 645.308594 543.351562 644.933594 539.851562 C 647.070312 545.050781 647.070312 545.050781 640.847656 555.121094 C 638.285156 561.785156 634.03125 567.480469 630.394531 573.53125 C 629.5 575.304688 630.300781 578.230469 627.097656 578.425781 C 627.113281 578.859375 627.082031 579.273438 627.019531 579.667969 C 630.117188 582.554688 633.429688 585.210938 636.984375 587.546875 C 637.585938 586.441406 638.285156 585.410156 638.4375 584.214844 C 638.625 582.753906 639.761719 581.277344 640.921875 581.9375 C 642.296875 582.722656 642.457031 584.730469 641.296875 586.203125 C 640.59375 587.09375 639.851562 587.957031 639.097656 588.828125 C 643.289062 591.386719 647.742188 593.535156 652.421875 595.238281 C 651.480469 593.050781 652.238281 590.8125 652.277344 588.59375 C 652.347656 585.890625 652.414062 583.1875 652.484375 580.488281 C 649.570312 576.539062 651.765625 572.054688 651.15625 567.867188 C 648.265625 566.035156 652.195312 564.726562 651.527344 563.066406 C 649.078125 561.949219 648.464844 559.699219 648.40625 557.382812 C 648.355469 555.238281 649.226562 552.550781 651.496094 552.789062 C 653.886719 553.042969 652.238281 555.519531 652.179688 557.054688 C 652.105469 559.085938 652.054688 561.117188 651.996094 563.148438 L 652.664062 566.460938 C 655.304688 570.347656 658.058594 574.636719 656.753906 579.273438 C 655.28125 584.503906 659.519531 589.246094 657.097656 594.246094 C 657.535156 595.175781 657.820312 596.105469 658.019531 597.03125 C 664.054688 598.699219 670.375 599.660156 676.917969 599.738281 C 676.667969 599.230469 676.578125 598.578125 676.59375 597.917969 C 676.042969 595.074219 677.644531 593.933594 680.109375 593.46875 L 682.503906 591.347656 C 683.980469 588.015625 683.878906 583.988281 686.953125 581.367188 C 686.65625 579.328125 687.667969 577.988281 689.316406 577 C 690.289062 575.542969 690.785156 573.667969 692.757812 573.085938 C 694.289062 571.101562 693.378906 567.941406 695.953125 566.457031 C 696.40625 564.757812 697.75 562.449219 699.03125 563.375 C 701.328125 565.042969 698.867188 566.777344 697.742188 568.296875 C 697.140625 570.878906 695.332031 572.71875 693.78125 574.71875 C 693.796875 576.988281 693.632812 579.203125 691.941406 580.972656 L 691.988281 581.230469 C 697.066406 584.75 692.226562 586.410156 690.59375 588.671875 C 685.777344 586.355469 685.8125 591.6875 683.429688 593.210938 C 683.707031 594.152344 684.292969 595.136719 683.050781 595.859375 C 682.386719 597.195312 681.828125 598.679688 680.789062 599.65625 C 715.039062 598.308594 743.40625 573.832031 750.625 541.425781 L 695.449219 541.425781 C 695.4375 542.007812 695.425781 542.589844 695.414062 543.171875 " fill-opacity="1" fill-rule="nonzero"/></g><g clip-path="url(#cde2184ea2)"><path fill="#ff1616" d="M 947.992188 599.734375 L 947.992188 546.738281 L 850.9375 546.738281 L 850.9375 599.734375 L 947.992188 599.734375 " fill-opacity="1" fill-rule="nonzero"/></g><g clip-path="url(#bfa74f2b0a)"><path fill="#ff1616" d="M 838.191406 599.734375 L 838.191406 317.082031 L 785.253906 317.082031 L 785.253906 599.734375 L 838.191406 599.734375 " fill-opacity="1" fill-rule="nonzero"/></g><g clip-path="url(#a617471fc3)"><path fill="#ff1616" d="M 1383.039062 599.734375 L 1383.039062 546.738281 L 1285.980469 546.738281 L 1285.980469 599.734375 L 1383.039062 599.734375 " fill-opacity="1" fill-rule="nonzero"/></g><g clip-path="url(#a777230dbc)"><path fill="#ff1616" d="M 1273.238281 599.734375 L 1273.238281 317.082031 L 1220.296875 317.082031 L 1220.296875 599.734375 L 1273.238281 599.734375 " fill-opacity="1" fill-rule="nonzero"/></g><g clip-path="url(#03a05094c9)"><path fill="#ff1616" d="M 962.648438 600.113281 L 962.648438 493.023438 L 845.636719 419.359375 L 1190.476562 419.359375 L 1190.476562 454.597656 L 1065.730469 454.597656 L 1065.730469 600.113281 Z M 1332.027344 599.632812 L 1436.554688 599.632812 L 1436.554688 419.378906 L 1332.027344 419.378906 Z M 1332.027344 599.632812 " fill-opacity="1" fill-rule="nonzero"/></g><g clip-path="url(#d8592416e2)"><path fill="#ed1c24" d="M 962.648438 205.734375 L 1217.273438 205.734375 L 1217.273438 303.71875 L 1065.710938 303.71875 L 1065.710938 367.328125 L 1190.457031 367.328125 L 1190.457031 386.492188 L 962.648438 386.492188 Z M 1530.628906 304.199219 L 1530.628906 206.71875 L 1237.742188 206.71875 L 1237.742188 304.21875 L 1332.046875 304.21875 L 1332.046875 386.511719 L 1557.773438 386.511719 L 1436.574219 328.207031 L 1436.574219 304.199219 Z M 1530.628906 304.199219 " fill-opacity="1" fill-rule="nonzero"/></g><g clip-path="url(#1658684d7c)"><path fill="#ff1616" d="M 1429.855469 314.757812 C 1446.105469 314.757812 1459.191406 301.664062 1459.191406 285.402344 L 1459.191406 280.800781 C 1459.335938 264.828125 1446.25 251.589844 1430 251.589844 C 1413.894531 251.589844 1400.664062 264.683594 1400.664062 280.800781 L 1400.664062 285.402344 C 1400.664062 301.664062 1413.75 314.757812 1429.855469 314.757812 Z M 1429.855469 314.757812 " fill-opacity="1" fill-rule="nonzero"/></g><g clip-path="url(#f4a48e6989)"><path fill="#ff1616" d="M 1430.574219 333.320312 C 1414.328125 333.320312 1401.242188 346.414062 1401.242188 362.675781 L 1401.242188 570.308594 C 1401.242188 586.570312 1414.328125 599.664062 1430.574219 599.664062 C 1446.824219 599.664062 1459.910156 586.570312 1459.910156 570.308594 L 1459.910156 362.675781 C 1459.910156 346.414062 1446.824219 333.320312 1430.574219 333.320312 Z M 1430.574219 333.320312 " fill-opacity="1" fill-rule="nonzero"/></g><g clip-path="url(#7d319d2559)"><path fill="#ed1c24" d="M 1721.332031 243.222656 L 1665.058594 339.609375 L 1662.3125 331.136719 L 1612.789062 243.222656 L 1527.359375 243.222656 L 1587.15625 348.402344 L 1573.554688 348.402344 L 1573.554688 383.578125 L 1608.726562 383.578125 L 1608.726562 383.484375 L 1631.949219 383.484375 L 1631.949219 416.125 L 1584.878906 416.125 L 1584.878906 451.296875 L 1608.726562 451.296875 L 1608.726562 486.46875 L 1577.398438 486.46875 L 1512.914062 600.238281 L 1558.023438 600.238281 L 1766.445312 243.222656 Z M 1646.066406 348.480469 L 1610.894531 348.480469 L 1610.894531 313.304688 L 1646.066406 313.304688 Z M 1563.863281 453.679688 L 1563.863281 488.851562 L 1528.691406 488.851562 L 1528.691406 453.679688 Z M 1467.679688 354.101562 L 1502.855469 354.101562 L 1502.855469 389.277344 L 1467.679688 389.277344 Z M 1467.679688 354.101562 " fill-opacity="1" fill-rule="nonzero"/></g><g clip-path="url(#0d5eb9e0fc)"><path fill="#ed1c24" d="M 1879.707031 600.238281 L 1792.617188 600.238281 L 1725.347656 482.609375 L 1724.644531 479.375 L 1653.941406 600.238281 L 1614.023438 600.238281 L 1822.457031 243.222656 L 1862.785156 243.222656 L 1770.746094 408.726562 Z M 1555.605469 320.222656 L 1520.441406 320.222656 L 1520.441406 355.398438 L 1555.613281 355.398438 L 1555.613281 320.222656 Z M 1526.496094 419.105469 L 1491.332031 419.105469 L 1491.332031 454.277344 L 1526.503906 454.277344 L 1526.503906 419.105469 Z M 1567.613281 383.941406 L 1532.441406 383.941406 L 1532.441406 419.113281 L 1567.613281 419.113281 Z M 1567.613281 383.941406 " fill-opacity="1" fill-rule="nonzero"/></g></svg>