<svg xmlns="http://www.w3.org/2000/svg" xmlns:xlink="http://www.w3.org/1999/xlink" width="500" zoomAndPan="magnify" viewBox="0 0 375 374.999991" height="500" preserveAspectRatio="xMidYMid meet" version="1.0"><defs><clipPath id="c6b04eaf79"><path d="M 63 0 L 322.089844 0 L 322.089844 375 L 63 375 Z M 63 0 " clip-rule="nonzero"/></clipPath><clipPath id="8fb9e87d08"><path d="M 52.839844 0 L 128 0 L 128 375 L 52.839844 375 Z M 52.839844 0 " clip-rule="nonzero"/></clipPath></defs><g clip-path="url(#c6b04eaf79)"><path fill="#ff1616" d="M 322.101562 261.273438 C 322.101562 316.628906 282.339844 375.019531 205.125 375.019531 L 63.496094 375.019531 L 138.617188 301.507812 L 198.144531 301.507812 C 222.5625 301.507812 248.609375 284.757812 248.609375 255.914062 C 248.609375 234.269531 233.726562 212.648438 197.917969 212.648438 L 138.617188 212.648438 L 138.617188 146.585938 L 169.082031 146.585938 C 186.992188 146.585938 204.425781 131.226562 204.425781 109.367188 C 204.425781 88.199219 187.90625 73.3125 170.46875 73.3125 L 138.617188 73.3125 L 63.496094 0.0429688 L 165.824219 0.0429688 C 232.335938 0.0429688 274.667969 48.890625 274.667969 99.367188 C 274.667969 139.136719 248.382812 163.800781 239.320312 163.800781 C 275.355469 163.800781 322.101562 201.03125 322.101562 261.273438 Z M 322.101562 261.273438 " fill-opacity="1" fill-rule="nonzero"/></g><g clip-path="url(#8fb9e87d08)"><path fill="#ff1616" d="M 127.960938 73.3125 L 127.960938 301.519531 L 52.839844 375.019531 L 52.839844 0.0429688 Z M 127.960938 73.3125 " fill-opacity="1" fill-rule="nonzero"/></g></svg>